<svg width="2854" height="1281" viewBox="0 0 2854 1281" fill="none" xmlns="http://www.w3.org/2000/svg">
<g clip-path="url(#clip0_5_214)">
<rect width="1280" height="2852.93" transform="translate(0.535156 1280.47) rotate(-90)" fill="white"/>
<rect x="2846" width="1280" height="2840" transform="rotate(90 2846 0)" fill="#7D4533"/>
<rect x="5.25537" y="407.102" width="49.9399" height="567.799" transform="rotate(-90.192 5.25537 407.102)" fill="#FDCD20"/>
<rect x="50.6748" y="356.296" width="49.9399" height="480.764" transform="rotate(-90.192 50.6748 356.296)" fill="#FDCD20"/>
<rect x="92.7793" y="305.502" width="49.9399" height="405.334" transform="rotate(-90.192 92.7793 305.502)" fill="#FDCD20"/>
<rect x="127.423" y="254.732" width="49.9399" height="319.128" transform="rotate(-90.192 127.423 254.732)" fill="#FDCD20"/>
<rect x="168.698" y="203.94" width="49.9399" height="231.264" transform="rotate(-90.192 168.698 203.94)" fill="#FDCD20"/>
<rect x="214.945" y="152.418" width="49.9399" height="129.309" transform="rotate(-90.192 214.945 152.418)" fill="#FDCD20"/>
<rect x="253.733" y="101.635" width="49.9399" height="49.7343" transform="rotate(-90.192 253.733 101.635)" fill="#FDCD20"/>
<rect x="574.24" y="405.907" width="49.9399" height="567.799" transform="rotate(-90.192 574.24 405.907)" fill="#FDCD20"/>
<rect x="619.66" y="355.101" width="49.9399" height="480.764" transform="rotate(-90.192 619.66 355.101)" fill="#FDCD20"/>
<rect x="661.764" y="304.306" width="49.9399" height="405.334" transform="rotate(-90.192 661.764 304.306)" fill="#FDCD20"/>
<rect x="696.408" y="253.537" width="49.9399" height="319.128" transform="rotate(-90.192 696.408 253.537)" fill="#FDCD20"/>
<rect x="737.683" y="202.745" width="49.9399" height="231.264" transform="rotate(-90.192 737.683 202.745)" fill="#FDCD20"/>
<rect x="783.929" y="151.223" width="49.9399" height="129.309" transform="rotate(-90.192 783.929 151.223)" fill="#FDCD20"/>
<rect x="822.718" y="100.439" width="49.9399" height="49.7343" transform="rotate(-90.192 822.718 100.439)" fill="#FDCD20"/>
<rect x="1143.22" y="403.996" width="49.9399" height="567.799" transform="rotate(-90.192 1143.22 403.996)" fill="#FDCD20"/>
<rect x="1188.64" y="353.19" width="49.9399" height="480.764" transform="rotate(-90.192 1188.64 353.19)" fill="#FDCD20"/>
<rect x="1230.75" y="302.395" width="49.9399" height="405.334" transform="rotate(-90.192 1230.75 302.395)" fill="#FDCD20"/>
<rect x="1265.39" y="251.625" width="49.9399" height="319.128" transform="rotate(-90.192 1265.39 251.625)" fill="#FDCD20"/>
<rect x="1306.67" y="200.833" width="49.9399" height="231.264" transform="rotate(-90.192 1306.67 200.833)" fill="#FDCD20"/>
<rect x="1352.91" y="149.312" width="49.9399" height="129.309" transform="rotate(-90.192 1352.91 149.312)" fill="#FDCD20"/>
<rect x="1391.7" y="98.5278" width="49.9399" height="49.7343" transform="rotate(-90.192 1391.7 98.5278)" fill="#FDCD20"/>
<rect x="1712.21" y="402.801" width="49.9399" height="567.799" transform="rotate(-90.192 1712.21 402.801)" fill="#FDCD20"/>
<rect x="1757.63" y="351.995" width="49.9399" height="480.764" transform="rotate(-90.192 1757.63 351.995)" fill="#FDCD20"/>
<rect x="1799.73" y="301.2" width="49.9399" height="405.334" transform="rotate(-90.192 1799.73 301.2)" fill="#FDCD20"/>
<rect x="1834.38" y="250.43" width="49.9399" height="319.128" transform="rotate(-90.192 1834.38 250.43)" fill="#FDCD20"/>
<rect x="1875.65" y="199.638" width="49.9399" height="231.264" transform="rotate(-90.192 1875.65 199.638)" fill="#FDCD20"/>
<rect x="1921.9" y="148.116" width="49.9399" height="129.309" transform="rotate(-90.192 1921.9 148.116)" fill="#FDCD20"/>
<rect x="1960.69" y="97.3328" width="49.9399" height="49.7343" transform="rotate(-90.192 1960.69 97.3328)" fill="#FDCD20"/>
<rect x="2281.2" y="400.891" width="49.9399" height="567.799" transform="rotate(-90.192 2281.2 400.891)" fill="#FDCD20"/>
<rect x="2326.62" y="350.085" width="49.9399" height="480.764" transform="rotate(-90.192 2326.62 350.085)" fill="#FDCD20"/>
<rect x="2368.73" y="299.29" width="49.9399" height="405.334" transform="rotate(-90.192 2368.73 299.29)" fill="#FDCD20"/>
<rect x="2403.37" y="248.521" width="49.9399" height="319.128" transform="rotate(-90.192 2403.37 248.521)" fill="#FDCD20"/>
<rect x="2444.65" y="197.728" width="49.9399" height="231.264" transform="rotate(-90.192 2444.65 197.728)" fill="#FDCD20"/>
<rect x="2490.89" y="146.207" width="49.9399" height="129.309" transform="rotate(-90.192 2490.89 146.207)" fill="#FDCD20"/>
<rect x="2529.68" y="95.4229" width="49.9399" height="49.7343" transform="rotate(-90.192 2529.68 95.4229)" fill="#FDCD20"/>
<line x1="13.5332" y1="421.917" x2="2854" y2="421.917" stroke="#FDCD20" stroke-width="15"/>
<rect x="2.25537" y="1213.1" width="49.9399" height="567.799" transform="rotate(-90.192 2.25537 1213.1)" fill="#FDCD20"/>
<rect x="47.6748" y="1162.3" width="49.9399" height="480.764" transform="rotate(-90.192 47.6748 1162.3)" fill="#FDCD20"/>
<rect x="89.7793" y="1111.5" width="49.9399" height="405.334" transform="rotate(-90.192 89.7793 1111.5)" fill="#FDCD20"/>
<rect x="124.423" y="1060.73" width="49.9399" height="319.128" transform="rotate(-90.192 124.423 1060.73)" fill="#FDCD20"/>
<rect x="165.698" y="1009.94" width="49.9399" height="231.264" transform="rotate(-90.192 165.698 1009.94)" fill="#FDCD20"/>
<rect x="211.945" y="958.418" width="49.9399" height="129.309" transform="rotate(-90.192 211.945 958.418)" fill="#FDCD20"/>
<rect x="250.733" y="907.635" width="49.9399" height="49.7343" transform="rotate(-90.192 250.733 907.635)" fill="#FDCD20"/>
<rect x="571.24" y="1211.91" width="49.9399" height="567.799" transform="rotate(-90.192 571.24 1211.91)" fill="#FDCD20"/>
<rect x="616.66" y="1161.1" width="49.9399" height="480.764" transform="rotate(-90.192 616.66 1161.1)" fill="#FDCD20"/>
<rect x="658.764" y="1110.31" width="49.9399" height="405.334" transform="rotate(-90.192 658.764 1110.31)" fill="#FDCD20"/>
<rect x="693.408" y="1059.54" width="49.9399" height="319.128" transform="rotate(-90.192 693.408 1059.54)" fill="#FDCD20"/>
<rect x="734.683" y="1008.74" width="49.9399" height="231.264" transform="rotate(-90.192 734.683 1008.74)" fill="#FDCD20"/>
<rect x="780.929" y="957.223" width="49.9399" height="129.309" transform="rotate(-90.192 780.929 957.223)" fill="#FDCD20"/>
<rect x="819.718" y="906.439" width="49.9399" height="49.7343" transform="rotate(-90.192 819.718 906.439)" fill="#FDCD20"/>
<rect x="1140.22" y="1210" width="49.9399" height="567.799" transform="rotate(-90.192 1140.22 1210)" fill="#FDCD20"/>
<rect x="1185.64" y="1159.19" width="49.9399" height="480.764" transform="rotate(-90.192 1185.64 1159.19)" fill="#FDCD20"/>
<rect x="1227.75" y="1108.4" width="49.9399" height="405.334" transform="rotate(-90.192 1227.75 1108.4)" fill="#FDCD20"/>
<rect x="1262.39" y="1057.63" width="49.9399" height="319.128" transform="rotate(-90.192 1262.39 1057.63)" fill="#FDCD20"/>
<rect x="1303.67" y="1006.83" width="49.9399" height="231.264" transform="rotate(-90.192 1303.67 1006.83)" fill="#FDCD20"/>
<rect x="1349.91" y="955.312" width="49.9399" height="129.309" transform="rotate(-90.192 1349.91 955.312)" fill="#FDCD20"/>
<rect x="1388.7" y="904.528" width="49.9399" height="49.7343" transform="rotate(-90.192 1388.7 904.528)" fill="#FDCD20"/>
<rect x="1709.21" y="1208.8" width="49.9399" height="567.799" transform="rotate(-90.192 1709.21 1208.8)" fill="#FDCD20"/>
<rect x="1754.63" y="1157.99" width="49.9399" height="480.764" transform="rotate(-90.192 1754.63 1157.99)" fill="#FDCD20"/>
<rect x="1796.73" y="1107.2" width="49.9399" height="405.334" transform="rotate(-90.192 1796.73 1107.2)" fill="#FDCD20"/>
<rect x="1831.38" y="1056.43" width="49.9399" height="319.128" transform="rotate(-90.192 1831.38 1056.43)" fill="#FDCD20"/>
<rect x="1872.65" y="1005.64" width="49.9399" height="231.264" transform="rotate(-90.192 1872.65 1005.64)" fill="#FDCD20"/>
<rect x="1918.9" y="954.116" width="49.9399" height="129.309" transform="rotate(-90.192 1918.9 954.116)" fill="#FDCD20"/>
<rect x="1957.69" y="903.333" width="49.9399" height="49.7343" transform="rotate(-90.192 1957.69 903.333)" fill="#FDCD20"/>
<rect x="2278.2" y="1206.89" width="49.9399" height="567.799" transform="rotate(-90.192 2278.2 1206.89)" fill="#FDCD20"/>
<rect x="2323.62" y="1156.08" width="49.9399" height="480.764" transform="rotate(-90.192 2323.62 1156.08)" fill="#FDCD20"/>
<rect x="2365.73" y="1105.29" width="49.9399" height="405.334" transform="rotate(-90.192 2365.73 1105.29)" fill="#FDCD20"/>
<rect x="2400.37" y="1054.52" width="49.9399" height="319.128" transform="rotate(-90.192 2400.37 1054.52)" fill="#FDCD20"/>
<rect x="2441.65" y="1003.73" width="49.9399" height="231.264" transform="rotate(-90.192 2441.65 1003.73)" fill="#FDCD20"/>
<rect x="2487.89" y="952.207" width="49.9399" height="129.309" transform="rotate(-90.192 2487.89 952.207)" fill="#FDCD20"/>
<rect x="2526.68" y="901.423" width="49.9399" height="49.7343" transform="rotate(-90.192 2526.68 901.423)" fill="#FDCD20"/>
<line x1="10.5332" y1="1227.92" x2="2851" y2="1227.92" stroke="#FDCD20" stroke-width="15"/>
</g>
<defs>
<clipPath id="clip0_5_214">
<rect width="1280" height="2852.93" fill="white" transform="translate(0.535156 1280.47) rotate(-90)"/>
</clipPath>
</defs>
</svg>
